<svg width="256" height="256" viewBox="0 0 256 256" fill="none" xmlns="http://www.w3.org/2000/svg">
<path d="M208.54 185.293H79.2127C69.1922 185.293 61.2933 178.049 60.425 168.068C59.8349 161.251 62.6927 155.128 67.7086 151.379L47.4372 60.6133C46.878 58.1152 47.485 55.5019 49.0839 53.504C50.6828 51.5061 53.105 50.3456 55.6621 50.3456H245.877C248.608 50.3456 251.171 51.6691 252.75 53.8946C254.332 56.1201 254.734 58.9751 253.835 61.5518L231.922 124.338C228.856 133.134 221.25 139.594 212.075 141.196L78.912 164.465C78.8811 164.468 78.853 164.474 78.8221 164.479C78.1814 164.592 77.0715 164.833 77.226 166.612C77.3834 168.433 78.5748 168.433 79.2155 168.433H208.543C213.199 168.433 216.973 172.207 216.973 176.863C216.973 181.519 213.196 185.293 208.54 185.293Z" fill="white"/>
<path d="M80.7891 232.67C90.8766 232.67 99.0541 224.492 99.0541 214.405C99.0541 204.317 90.8766 196.14 80.7891 196.14C70.7016 196.14 62.5241 204.317 62.5241 214.405C62.5241 224.492 70.7016 232.67 80.7891 232.67Z" fill="white"/>
<path d="M193.301 232.67C203.389 232.67 211.566 224.492 211.566 214.405C211.566 204.317 203.389 196.14 193.301 196.14C183.214 196.14 175.036 204.317 175.036 214.405C175.036 224.492 183.214 232.67 193.301 232.67Z" fill="white"/>
<path d="M55.6565 67.2084C51.7955 67.2084 48.314 64.5388 47.4372 60.6133L43.5735 43.3177C42.0167 36.3489 35.9415 31.482 28.7985 31.482H9.83662C5.18045 31.482 1.40662 27.7082 1.40662 23.052C1.40662 18.3958 5.18045 14.622 9.83662 14.622H28.8013C43.8966 14.622 56.7383 24.9122 60.0288 39.6422L63.8926 56.9378C64.907 61.4816 62.0464 65.9888 57.5026 67.0032C56.8816 67.1409 56.2634 67.2084 55.6565 67.2084Z" fill="white"/>
</svg>
